PathFileType	4	(X/Y/Z)	Patient4_TMGait_0pt7_01_right_46.trc.trc
DataRate	CameraRate	NumFrames	NumMarkers	Units	OrigDataRate	OrigDataStartFrame	OrigNumFrames
86.419753086420	86.419753086420	5	33	mm	86.419753086420	124	       141
Frame#	Time	Sacral			L.Shoulder			Chest			R.Shoulder			Neck			R.ASIS			L.ASIS			R.Thigh.Superior			R.Thigh.Lateral			R.Thigh.Inferior			R.Patella			L.Thigh.Superior			L.Thigh.Lateral			L.Thigh.Inferior			L.Patella			L.Shank.Superior			L.Shank.Lateral			L.Shank.Inferior			R.Shank.Superior			R.Shank.Lateral			R.Shank.Inferior			R.Heel			R.Midfoot.Superior			R.Midfoot.Lateral			R.Toe			L.Heel			L.Midfoot.Lateral			L.Midfoot.Superior			L.Toe			L.Elbow			L.Wrist			R.Elbow			R.Wrist			
		X1	Y1	Z1	X2	Y2	Z2	X3	Y3	Z3	X4	Y4	Z4	X5	Y5	Z5	X6	Y6	Z6	X7	Y7	Z7	X8	Y8	Z8	X9	Y9	Z9	X10	Y10	Z10	X11	Y11	Z11	X12	Y12	Z12	X13	Y13	Z13	X14	Y14	Z14	X15	Y15	Z15	X16	Y16	Z16	X17	Y17	Z17	X18	Y18	Z18	X19	Y19	Z19	X20	Y20	Z20	X21	Y21	Z21	X22	Y22	Z22	X23	Y23	Z23	X24	Y24	Z24	X25	Y25	Z25	X26	Y26	Z26	X27	Y27	Z27	X28	Y28	Z28	X29	Y29	Z29	X30	Y30	Z30	X31	Y31	Z31	X32	Y32	Z32	X33	Y33	Z33	

124	54.223285714286	850.019841327969	989.950061177296	452.359740236479	1054.093934256381	1404.472233683026	264.274204595610	1142.370296662514	1336.266969926609	434.862289858394	1051.106769514214	1425.846039496496	597.788993778880	1051.795973128461	1471.888271764706	414.583440104953	1071.135398853133	918.757611339060	576.418426579126	1067.012836809927	946.205400918369	300.947681267334	1147.629765116735	750.995124134185	550.091658382526	1102.885295591705	626.917482913030	621.166630230713	1195.813468802050	594.071830430418	543.987279158519	1229.106349356653	512.015004121161	557.474971969611	1051.988733576947	718.926138019873	320.592402435283	923.845577617775	636.195054655954	259.037633787328	975.856197084425	535.796930571704	319.264735071918	956.115850325991	470.491734373006	327.709403477972	917.881127415685	408.405592154367	319.825662926768	808.476529792598	311.350425754091	268.965725285801	840.566785295497	192.505812147080	341.098692705590	1216.811570291650	422.195002166179	568.967261290735	1165.980225580272	308.099023598965	632.628855821059	1236.835835535836	223.358976843606	582.023275372453	1145.253203089453	41.432134510983	558.821122789614	1310.355664167001	110.200135527294	592.690341955522	1230.341802357794	40.618978444087	630.359384232422	1433.822650246259	71.292731116755	618.257638333078	693.747296839137	46.237404808389	381.998486021260	771.585705278604	37.461347360449	306.594729359868	855.306538983715	96.504078166954	334.927150037862	983.020458716497	39.852717282962	315.870523191857	1090.473397072527	1068.341591168571	131.381009505500	1343.133862908536	1053.899634031164	161.496014700540	866.448656262462	1154.032709535810	734.254635276041	805.858225384281	899.587954772280	764.104741221284	
125	54.234857142857	851.834961637213	988.952148661876	455.804285238249	1054.593432748267	1403.697590878308	266.991700510643	1143.427909829748	1335.752558724883	437.409491366190	1052.359877148620	1425.123673866194	600.694545139681	1052.560589493189	1471.189895557783	417.387319547576	1073.664092096913	917.638107221543	578.759174714078	1068.403110894253	945.343579262632	303.406097908767	1150.326196390920	749.560677284767	551.825278484914	1103.997568725396	625.320025869537	621.525385359945	1196.865278747552	592.632810113249	544.389058371789	1229.089438391733	509.763820445805	557.005827535559	1053.018833806929	717.971780193661	322.393177610971	924.198942636439	635.855867633893	261.221920094469	976.035702757395	534.865055724215	320.861595128691	955.876432448552	468.967279726010	329.161641363244	916.290551972969	407.368276041662	321.136408436186	804.978106134647	312.592282711286	270.089584581488	834.971543901808	192.733286660597	341.333452599285	1216.009903785779	419.471724572261	568.533555847794	1163.942702779964	305.911915137407	632.114432536291	1233.042929637120	220.352339421947	580.846431422465	1137.694713938359	41.195325042541	558.033946852739	1304.464902882948	106.213049575059	590.848263285398	1222.994521155812	39.110315821663	629.420996400951	1427.352729585680	64.866759234374	615.921160155040	685.884375555539	48.318914600084	381.640979102253	763.673016350535	38.289696769570	306.416560731291	847.972789073245	96.819119296622	334.529643855273	975.012420653147	39.411859623604	315.772870484428	1091.385756566662	1067.001647131826	135.357870778672	1344.243673335466	1059.628636353212	164.693581052392	866.923665547059	1153.404188263861	735.631663495033	804.969401701188	898.948187709982	763.848262119275	
126	54.246428571429	853.629178840318	988.404764682249	459.299559698351	1055.268417797484	1403.320133596646	269.814688870838	1144.678573655122	1335.551041231322	440.029463776071	1053.865671348227	1424.668556722051	603.713729292578	1053.571058648520	1470.863034407992	420.345756523391	1076.189395108281	916.944142626310	581.182915529582	1069.768526606074	944.770186169712	305.935717109727	1153.097452601635	748.694350972845	553.484637521466	1105.434651608860	624.453188997082	622.119500514382	1198.062304916057	591.792688100270	544.883811911414	1229.225762317993	507.996120133402	556.869084702936	1054.238598701259	717.317382140919	324.343450321679	924.899181083606	635.651130126381	263.534052093476	976.764898497695	534.106878377573	322.524732297478	956.271856017811	467.490480972849	330.563584649623	915.176092420766	406.447449812218	322.435997990824	801.842492188379	314.141810577330	271.272490341897	829.657431456970	193.208932889163	341.494993141446	1215.221303137146	417.257074500754	568.402826542912	1161.876064485613	304.346526105210	632.100107675282	1228.886214965450	217.820978253228	580.012883557395	1129.518368237003	41.260782683190	557.641353867606	1297.883959437707	102.817700066576	589.487187914578	1215.023495324081	38.003046694985	628.893110925952	1420.223421251311	59.169772938042	614.040852905233	678.115367048972	50.923015395066	381.236634966743	755.803294701803	39.329287510952	306.204846742196	840.856245332174	97.196446904531	334.004415279870	966.994673431201	39.010850422714	315.675507284524	1091.705391071082	1065.825196651652	139.533283463791	1344.640270568085	1064.264855126426	167.949276635441	868.505070563126	1152.264855788657	737.214802000318	805.727343852480	897.678360646575	763.645744895467	
127	54.258000000000	855.377956869794	988.338646395362	462.810325438388	1056.146424002403	1403.372556060383	272.715270990810	1146.111728032417	1335.684931175628	442.704211480837	1055.604870965458	1424.531719713332	606.794247707927	1054.833441481317	1470.933512887000	423.415360934248	1078.656234812914	916.723084483344	583.707046432125	1071.079439196108	944.547971634657	308.532182159346	1155.835443328338	748.406553029915	555.088997395596	1107.128248761131	624.305905893999	623.012450097189	1199.306727608342	591.500352832618	545.537618137676	1229.400348770304	506.715709352098	557.146249597341	1055.640036607293	717.010742939418	326.449168494135	925.991143943394	635.580558691559	265.944165551241	978.136419057977	533.543331747731	324.220475403212	957.402180546066	466.075707868471	331.843988764029	914.622807802203	405.657753542385	323.670930500687	799.140344651892	316.035668327101	272.496252303708	824.696537877107	193.974961328690	341.557731475364	1214.382188856740	415.572780388545	568.609097020040	1159.792217828426	303.381240535110	632.585546235507	1224.455462136078	215.814381513056	579.525980657938	1121.056609710532	41.519113824609	557.572902810464	1290.817185276969	100.158473543302	588.611741032443	1206.738442109326	37.275900245200	628.720261121473	1412.676288760400	54.503207830902	612.679255053622	670.493853622596	54.142806015303	380.792719986683	748.004498928237	40.639686961516	305.966652112712	834.010760066064	97.640858799181	333.345392636056	958.968626009655	38.664846058985	315.589198120809	1091.400153981676	1064.866430898861	143.876823444568	1344.368666721940	1067.757691631264	171.254832401939	871.162799065174	1150.713185583264	739.019028485548	808.164348104176	895.861483954754	763.565925714224	
128	54.269571428571	857.065476284881	988.755233535385	466.318198764400	1057.239135793847	1403.862994365994	275.664705856351	1147.704426619072	1336.157198429713	445.414277380654	1057.550712209959	1424.749417235061	609.886407991243	1056.333976998919	1471.403414825583	426.546548185729	1081.017569245689	916.993295525884	586.351812834703	1072.307481225504	944.715160176133	311.198486912184	1158.425665322469	748.648271407321	556.681591628327	1108.946913591708	624.791170422271	624.236234872622	1200.464551823970	591.644506125540	546.405848366975	1229.456905200478	505.865747195080	557.868294643082	1057.236006735218	717.081686304305	328.711216842417	927.543820663186	635.623885626802	268.421205203922	980.267946267703	533.178133167134	325.913780283336	959.390402486859	464.726324297070	332.938743546960	914.744390905283	404.998327246043	324.795294644801	796.977690677972	318.298411471289	273.742045861679	820.183648896974	195.069378154734	341.506615422429	1213.380066197144	414.376791126214	569.148896691225	1157.623402541984	302.932289433831	633.508311168990	1219.783582129423	214.317154799609	579.354899518754	1112.542791810712	41.871928560728	557.742027699443	1283.423053487645	98.276459657519	588.171980159842	1198.359339967947	36.875012339768	628.822658295821	1404.891387069936	50.985724784196	611.830956749794	663.097777995342	58.085084923194	380.319834750948	740.322407771987	42.305858827471	305.711716211397	827.498555534399	98.166401145631	332.559716408414	950.942043421051	38.379842130518	315.524990371925	1090.452176843858	1064.176448704354	148.355213945074	1343.467022608495	1070.065058446074	174.609384211845	874.842099055330	1148.863675133243	741.052568409617	812.314305577181	893.598125109752	763.663791547135	
